<svg width="108" height="62" viewBox="0 0 108 62" fill="none" xmlns="http://www.w3.org/2000/svg">
<path d="M83.8137 26.0304L48.1961 38.2901V58.0534L43.9557 56.5519L34.9004 53.3391L29.3975 51.3846L43.9557 46.3557V35.8784L83.8137 22.1926V9.19883L63.9539 16.0439L59.7177 17.4741L24.1002 29.7339V49.4972L19.8598 47.9956L10.8044 44.7829L5.30154 42.8283L19.8598 37.7994V27.3222L59.7177 13.6364V0.642578L0 21.1776V44.6444L5.50285 46.5989L19.8598 51.6992L24.1002 53.2007L29.603 55.1552L43.9557 60.2554L48.1961 61.757L107.91 41.2219V17.7551L88.0499 24.6001L83.8137 26.0304Z" fill="#FD6720"/>
</svg>
